<svg width="87" height="16" viewBox="0 0 87 16" fill="none" xmlns="http://www.w3.org/2000/svg">
<path d="M5.26 15C5.12667 15 5.01333 14.96 4.92 14.88C4.84 14.7867 4.8 14.6733 4.8 14.54V2.78H0.96C0.826667 2.78 0.713333 2.74 0.62 2.66C0.54 2.56667 0.5 2.45333 0.5 2.32V1.48C0.5 1.33333 0.54 1.22 0.62 1.14C0.713333 1.04667 0.826667 0.999999 0.96 0.999999H10.6C10.7467 0.999999 10.86 1.04667 10.94 1.14C11.0333 1.22 11.08 1.33333 11.08 1.48V2.32C11.08 2.45333 11.0333 2.56667 10.94 2.66C10.86 2.74 10.7467 2.78 10.6 2.78H6.78V14.54C6.78 14.6733 6.73333 14.7867 6.64 14.88C6.56 14.96 6.44667 15 6.3 15H5.26ZM14.1261 15.2C13.4594 15.2 12.8528 15.0667 12.3061 14.8C11.7594 14.5333 11.3194 14.1733 10.9861 13.72C10.6528 13.2667 10.4861 12.7533 10.4861 12.18C10.4861 11.26 10.8594 10.5267 11.6061 9.98C12.3528 9.43333 13.3261 9.07333 14.5261 8.9L17.5061 8.48V7.9C17.5061 7.26 17.3194 6.76 16.9461 6.4C16.5861 6.04 15.9928 5.86 15.1661 5.86C14.5661 5.86 14.0794 5.98 13.7061 6.22C13.3461 6.46 13.0928 6.76667 12.9461 7.14C12.8661 7.34 12.7261 7.44 12.5261 7.44H11.6261C11.4794 7.44 11.3661 7.4 11.2861 7.32C11.2194 7.22667 11.1861 7.12 11.1861 7C11.1861 6.8 11.2594 6.55333 11.4061 6.26C11.5661 5.96667 11.8061 5.68 12.1261 5.4C12.4461 5.12 12.8528 4.88667 13.3461 4.7C13.8528 4.5 14.4661 4.4 15.1861 4.4C15.9861 4.4 16.6594 4.50667 17.2061 4.72C17.7528 4.92 18.1794 5.19333 18.4861 5.54C18.8061 5.88667 19.0328 6.28 19.1661 6.72C19.3128 7.16 19.3861 7.60667 19.3861 8.06V14.54C19.3861 14.6733 19.3394 14.7867 19.2461 14.88C19.1661 14.96 19.0594 15 18.9261 15H18.0061C17.8594 15 17.7461 14.96 17.6661 14.88C17.5861 14.7867 17.5461 14.6733 17.5461 14.54V13.68C17.3728 13.92 17.1394 14.16 16.8461 14.4C16.5528 14.6267 16.1861 14.82 15.7461 14.98C15.3061 15.1267 14.7661 15.2 14.1261 15.2ZM14.5461 13.7C15.0928 13.7 15.5928 13.5867 16.0461 13.36C16.4994 13.12 16.8528 12.7533 17.1061 12.26C17.3728 11.7667 17.5061 11.1467 17.5061 10.4V9.84L15.1861 10.18C14.2394 10.3133 13.5261 10.54 13.0461 10.86C12.5661 11.1667 12.3261 11.56 12.3261 12.04C12.3261 12.4133 12.4328 12.7267 12.6461 12.98C12.8728 13.22 13.1528 13.4 13.4861 13.52C13.8328 13.64 14.1861 13.7 14.5461 13.7ZM25.8613 15.2C25.1146 15.2 24.4746 15.1067 23.9413 14.92C23.4079 14.7333 22.9746 14.5067 22.6413 14.24C22.3079 13.9733 22.0546 13.7067 21.8813 13.44C21.7213 13.1733 21.6346 12.96 21.6213 12.8C21.6079 12.6533 21.6546 12.54 21.7613 12.46C21.8679 12.38 21.9746 12.34 22.0813 12.34H22.9613C23.0413 12.34 23.1013 12.3533 23.1413 12.38C23.1946 12.3933 23.2613 12.4467 23.3413 12.54C23.5146 12.7267 23.7079 12.9133 23.9213 13.1C24.1346 13.2867 24.3946 13.44 24.7013 13.56C25.0213 13.68 25.4146 13.74 25.8813 13.74C26.5613 13.74 27.1213 13.6133 27.5613 13.36C28.0013 13.0933 28.2213 12.7067 28.2213 12.2C28.2213 11.8667 28.1279 11.6 27.9413 11.4C27.7679 11.2 27.4479 11.02 26.9813 10.86C26.5279 10.7 25.9013 10.5333 25.1013 10.36C24.3013 10.1733 23.6679 9.94667 23.2013 9.68C22.7346 9.4 22.4013 9.07333 22.2013 8.7C22.0013 8.31333 21.9013 7.88 21.9013 7.4C21.9013 6.90667 22.0479 6.43333 22.3413 5.98C22.6346 5.51333 23.0613 5.13333 23.6213 4.84C24.1946 4.54667 24.9079 4.4 25.7613 4.4C26.4546 4.4 27.0479 4.48667 27.5413 4.66C28.0346 4.83333 28.4413 5.05333 28.7613 5.32C29.0813 5.57333 29.3213 5.82667 29.4813 6.08C29.6413 6.33333 29.7279 6.54667 29.7413 6.72C29.7546 6.85333 29.7146 6.96667 29.6213 7.06C29.5279 7.14 29.4213 7.18 29.3013 7.18H28.4613C28.3679 7.18 28.2879 7.16 28.2213 7.12C28.1679 7.08 28.1146 7.03333 28.0613 6.98C27.9279 6.80667 27.7679 6.63333 27.5813 6.46C27.4079 6.28667 27.1746 6.14667 26.8813 6.04C26.6013 5.92 26.2279 5.86 25.7613 5.86C25.0946 5.86 24.5946 6 24.2613 6.28C23.9279 6.56 23.7613 6.91333 23.7613 7.34C23.7613 7.59333 23.8346 7.82 23.9813 8.02C24.1279 8.22 24.4079 8.4 24.8213 8.56C25.2346 8.72 25.8479 8.89333 26.6612 9.08C27.5413 9.25333 28.2346 9.48667 28.7413 9.78C29.2479 10.0733 29.6079 10.4133 29.8213 10.8C30.0346 11.1867 30.1413 11.6333 30.1413 12.14C30.1413 12.7 29.9746 13.2133 29.6413 13.68C29.3213 14.1467 28.8413 14.52 28.2013 14.8C27.5746 15.0667 26.7946 15.2 25.8613 15.2ZM32.9366 15C32.8032 15 32.6899 14.96 32.5966 14.88C32.5166 14.7867 32.4766 14.6733 32.4766 14.54V1.26C32.4766 1.12667 32.5166 1.02 32.5966 0.94C32.6899 0.846666 32.8032 0.799999 32.9366 0.799999H33.8766C34.0099 0.799999 34.1166 0.846666 34.1966 0.94C34.2899 1.02 34.3366 1.12667 34.3366 1.26V8.22L38.2766 4.94C38.4366 4.80667 38.5566 4.72 38.6366 4.68C38.7299 4.62667 38.8766 4.6 39.0766 4.6H40.1366C40.2566 4.6 40.3566 4.64 40.4366 4.72C40.5166 4.8 40.5566 4.9 40.5566 5.02C40.5566 5.07333 40.5366 5.13333 40.4966 5.2C40.4699 5.26667 40.4099 5.33333 40.3166 5.4L35.6966 9.24L40.8166 14.22C40.9766 14.3533 41.0566 14.4733 41.0566 14.58C41.0566 14.7 41.0166 14.8 40.9366 14.88C40.8566 14.96 40.7566 15 40.6366 15H39.5966C39.3966 15 39.2499 14.98 39.1566 14.94C39.0632 14.8867 38.9432 14.7933 38.7966 14.66L34.3366 10.4V14.54C34.3366 14.6733 34.2899 14.7867 34.1966 14.88C34.1166 14.96 34.0099 15 33.8766 15H32.9366ZM47.8733 15.2C46.7399 15.2 45.7666 15.0067 44.9533 14.62C44.1399 14.22 43.5133 13.6133 43.0733 12.8C42.6333 11.9733 42.3866 10.94 42.3333 9.7C42.3199 9.11333 42.3133 8.55333 42.3133 8.02C42.3133 7.47333 42.3199 6.90667 42.3333 6.32C42.3866 5.09333 42.6399 4.07333 43.0933 3.26C43.5599 2.43333 44.1999 1.82 45.0133 1.42C45.8399 1.00667 46.7933 0.799999 47.8733 0.799999C48.9666 0.799999 49.9199 1.00667 50.7333 1.42C51.5599 1.82 52.2066 2.43333 52.6733 3.26C53.1399 4.07333 53.3933 5.09333 53.4333 6.32C53.4599 6.90667 53.4733 7.47333 53.4733 8.02C53.4733 8.55333 53.4599 9.11333 53.4333 9.7C53.3933 10.94 53.1466 11.9733 52.6933 12.8C52.2533 13.6133 51.6266 14.22 50.8133 14.62C49.9999 15.0067 49.0199 15.2 47.8733 15.2ZM47.8733 13.5C48.8999 13.5 49.7333 13.1933 50.3733 12.58C51.0266 11.9667 51.3799 10.9733 51.4333 9.6C51.4599 9 51.4733 8.46667 51.4733 8C51.4733 7.52 51.4599 6.98667 51.4333 6.4C51.4066 5.48 51.2333 4.73333 50.9133 4.16C50.6066 3.58667 50.1933 3.16667 49.6733 2.9C49.1533 2.63333 48.5533 2.5 47.8733 2.5C47.2199 2.5 46.6333 2.63333 46.1133 2.9C45.5933 3.16667 45.1733 3.58667 44.8533 4.16C44.5466 4.73333 44.3733 5.48 44.3333 6.4C44.3199 6.98667 44.3133 7.52 44.3133 8C44.3133 8.46667 44.3199 9 44.3333 9.6C44.3866 10.9733 44.7399 11.9667 45.3933 12.58C46.0466 13.1933 46.8733 13.5 47.8733 13.5ZM56.5884 15C56.4551 15 56.3418 14.96 56.2484 14.88C56.1684 14.7867 56.1284 14.6733 56.1284 14.54V5.08C56.1284 4.94667 56.1684 4.83333 56.2484 4.74C56.3418 4.64667 56.4551 4.6 56.5884 4.6H57.5084C57.6418 4.6 57.7551 4.64667 57.8484 4.74C57.9418 4.83333 57.9884 4.94667 57.9884 5.08V5.96C58.2551 5.50667 58.6218 5.16667 59.0884 4.94C59.5551 4.71333 60.1151 4.6 60.7684 4.6H61.5684C61.7018 4.6 61.8084 4.64667 61.8884 4.74C61.9684 4.82 62.0084 4.92667 62.0084 5.06V5.88C62.0084 6.01333 61.9684 6.12 61.8884 6.2C61.8084 6.28 61.7018 6.32 61.5684 6.32H60.3684C59.6484 6.32 59.0818 6.53333 58.6684 6.96C58.2551 7.37333 58.0484 7.94 58.0484 8.66V14.54C58.0484 14.6733 58.0018 14.7867 57.9084 14.88C57.8151 14.96 57.7018 15 57.5684 15H56.5884ZM68.8661 15.2C68.0661 15.2 67.3994 15.06 66.8661 14.78C66.3328 14.4867 65.9061 14.1267 65.5861 13.7V14.54C65.5861 14.6733 65.5394 14.7867 65.4461 14.88C65.3661 14.96 65.2594 15 65.1261 15H64.2061C64.0728 15 63.9594 14.96 63.8661 14.88C63.7861 14.7867 63.7461 14.6733 63.7461 14.54V1.26C63.7461 1.12667 63.7861 1.02 63.8661 0.94C63.9594 0.846666 64.0728 0.799999 64.2061 0.799999H65.1661C65.3128 0.799999 65.4261 0.846666 65.5061 0.94C65.5861 1.02 65.6261 1.12667 65.6261 1.26V5.86C65.9594 5.44667 66.3861 5.1 66.9061 4.82C67.4394 4.54 68.0928 4.4 68.8661 4.4C69.6128 4.4 70.2461 4.53333 70.7661 4.8C71.2994 5.05333 71.7328 5.40667 72.0661 5.86C72.4128 6.31333 72.6728 6.82667 72.8461 7.4C73.0194 7.97333 73.1128 8.57333 73.1261 9.2C73.1394 9.41333 73.1461 9.61333 73.1461 9.8C73.1461 9.98667 73.1394 10.1867 73.1261 10.4C73.1128 11.04 73.0194 11.6467 72.8461 12.22C72.6728 12.7933 72.4128 13.3067 72.0661 13.76C71.7328 14.2 71.2994 14.5533 70.7661 14.82C70.2461 15.0733 69.6128 15.2 68.8661 15.2ZM68.4461 13.58C69.1394 13.58 69.6794 13.4333 70.0661 13.14C70.4661 12.8333 70.7528 12.44 70.9261 11.96C71.0994 11.4667 71.1994 10.94 71.2261 10.38C71.2394 9.99333 71.2394 9.60667 71.2261 9.22C71.1994 8.66 71.0994 8.14 70.9261 7.66C70.7528 7.16667 70.4661 6.77333 70.0661 6.48C69.6794 6.17333 69.1394 6.02 68.4461 6.02C67.8194 6.02 67.2994 6.16667 66.8861 6.46C66.4728 6.75333 66.1594 7.12667 65.9461 7.58C65.7461 8.03333 65.6394 8.49333 65.6261 8.96C65.6128 9.17333 65.6061 9.43333 65.6061 9.74C65.6061 10.0333 65.6128 10.2867 65.6261 10.5C65.6528 10.9933 65.7594 11.48 65.9461 11.96C66.1461 12.4267 66.4461 12.8133 66.8461 13.12C67.2594 13.4267 67.7928 13.58 68.4461 13.58ZM76.0806 15C75.9473 15 75.834 14.96 75.7406 14.88C75.6606 14.7867 75.6206 14.6733 75.6206 14.54V5.06C75.6206 4.92667 75.6606 4.82 75.7406 4.74C75.834 4.64667 75.9473 4.6 76.0806 4.6H77.0406C77.174 4.6 77.2806 4.64667 77.3606 4.74C77.4406 4.82 77.4806 4.92667 77.4806 5.06V14.54C77.4806 14.6733 77.4406 14.7867 77.3606 14.88C77.2806 14.96 77.174 15 77.0406 15H76.0806ZM75.9206 2.66C75.7873 2.66 75.674 2.62 75.5806 2.54C75.5006 2.44667 75.4606 2.33333 75.4606 2.2V1.12C75.4606 0.986666 75.5006 0.879999 75.5806 0.799999C75.674 0.706666 75.7873 0.66 75.9206 0.66H77.1806C77.314 0.66 77.4206 0.706666 77.5006 0.799999C77.594 0.879999 77.6406 0.986666 77.6406 1.12V2.2C77.6406 2.33333 77.594 2.44667 77.5006 2.54C77.4206 2.62 77.314 2.66 77.1806 2.66H75.9206ZM84.5244 15C83.7777 15 83.171 14.86 82.7044 14.58C82.2377 14.2867 81.8977 13.88 81.6844 13.36C81.471 12.8267 81.3644 12.2 81.3644 11.48V6.2H79.8044C79.671 6.2 79.5577 6.16 79.4644 6.08C79.3844 5.98667 79.3444 5.87333 79.3444 5.74V5.06C79.3444 4.92667 79.3844 4.82 79.4644 4.74C79.5577 4.64667 79.671 4.6 79.8044 4.6H81.3644V1.26C81.3644 1.12667 81.4044 1.02 81.4844 0.94C81.5777 0.846666 81.691 0.799999 81.8244 0.799999H82.7644C82.8977 0.799999 83.0044 0.846666 83.0844 0.94C83.1777 1.02 83.2244 1.12667 83.2244 1.26V4.6H85.7044C85.8377 4.6 85.9444 4.64667 86.0244 4.74C86.1177 4.82 86.1644 4.92667 86.1644 5.06V5.74C86.1644 5.87333 86.1177 5.98667 86.0244 6.08C85.9444 6.16 85.8377 6.2 85.7044 6.2H83.2244V11.34C83.2244 11.9667 83.331 12.46 83.5444 12.82C83.7577 13.18 84.1377 13.36 84.6844 13.36H85.9044C86.0377 13.36 86.1444 13.4067 86.2244 13.5C86.3177 13.58 86.3644 13.6867 86.3644 13.82V14.54C86.3644 14.6733 86.3177 14.7867 86.2244 14.88C86.1444 14.96 86.0377 15 85.9044 15H84.5244Z" fill="#1A237E"/>
</svg>
